# xmcd
#
# Track frame offsets:
#  183
#  13455
#  24718
#  35930
#  45218
#  63010
#  77233
#  87635
#  104330
#  118220
#  134768
#  157180
#  183945
#  208455
#  228643
#  244340
#  260833
#  283460
#
# Disc length: 4049 seconds
#
# Revision: 0
# Processed by: cddbd v1.5.1PL2 Copyright (c) Steve Scherf et al.
# Submitted via: Collectorz.com_Music_Collector 6.11
#
DISCID=230fcf12
DTITLE=Various Artist - American Folk Blues Festival '72
DYEAR=1991
DGENRE=Blues
TTITLE0=Bukka White - I'm Gettin' Ready
TTITLE1=Bukka White - Aberdeen Blues
TTITLE2=Big Joe Williams - My Baby Is Gone
TTITLE3=Big Joe Williams - My Boots and Shoes
TTITLE4=Robert Pete Williams - Look Here Woman
TTITLE5=Roosewelt Sykes - Drivin' Wheel
TTITLE6=Roosewelt Sykes - Sweet Home Chicago
TTITLE7=Memphis Slim - Michael Denis - Lonesome Traveller
TTITLE8=Memphis Slim - Michael Denis - Boogin' And Bluesin'
TTITLE9=Johnny Young - W. D. Kent - Billy Davenport - Instrumental Boogie
TTITLE10=Big Mama Thornton and The Blues Band - Tell Me Baby
TTITLE11=Big Mama Thornton and The Blues Band - Ball 'n' Chain
TTITLE12=T-Bone Walker and The Blues Band - Shake It Baby
TTITLE13=T-Bone Walker - Lenart, Paul - Edward Taylor - Mo, Philip - The Blues Band
TTITLE14=Jimmy Rogers - Whispering Smith - W. D. Kent - Billy Davenport - Tricky Wo
TTITLE15=Lightin' Slim - Whispering Smith - Winter Time Blues
TTITLE16=Dawkins, Jimmy - Big Voice Odom - Jesse Fuller - Jimmy Dawkins Chicago Blues Band
TTITLE17=Dawkins, Jimmy - Big Voice Odom - Jesse - Jimmy Dawkins Chicago Blues Band
EXTD=
EXTT0=
EXTT1=
EXTT2=
EXTT3=
EXTT4=
EXTT5=
EXTT6=
EXTT7=
EXTT8=
EXTT9=
EXTT10=
EXTT11=
EXTT12=
EXTT13=
EXTT14=
EXTT15=
EXTT16=
EXTT17=
PLAYORDER=
